<svg xmlns="http://www.w3.org/2000/svg" viewBox="0 0 300 200" width="100%" height="100%">
  <defs>
    <linearGradient id="bgGrad" x1="0%" y1="0%" x2="100%" y2="100%">
      <stop offset="0%" stop-color="#090514" />
      <stop offset="100%" stop-color="#190e2b" />
    </linearGradient>
    <linearGradient id="neonGrad" x1="0%" y1="0%" x2="100%" y2="100%">
      <stop offset="0%" stop-color="#ff7b00" />
      <stop offset="100%" stop-color="#ff007b" />
    </linearGradient>
    <filter id="glow" x="-20%" y="-20%" width="140%" height="140%">
      <feGaussianBlur stdDeviation="6" result="blur" />
      <feMerge>
        <feMergeNode in="blur" />
        <feMergeNode in="SourceGraphic" />
      </feMerge>
    </filter>
  </defs>
  <rect width="300" height="200" fill="url(#bgGrad)" />
  <path d="M 0,20 L 300,20 M 0,40 L 300,40 M 0,60 L 300,60 M 0,80 L 300,80 M 0,100 L 300,100 M 0,120 L 300,120 M 0,140 L 300,140 M 0,160 L 300,160 M 0,180 L 300,180" stroke="#2a1b4e" stroke-width="0.5" />
  <path d="M 30,0 L 30,200 M 60,0 L 60,200 M 90,0 L 90,200 M 120,0 L 120,200 M 150,0 L 150,200 M 180,0 L 180,200 M 210,0 L 210,200 M 240,0 L 240,200 M 270,0 L 270,200" stroke="#2a1b4e" stroke-width="0.5" />
  <path d="M 15,185 L 55,185 L 75,165 L 105,165" stroke="#ff7b00" stroke-width="1.5" fill="none" opacity="0.5" />
  <circle cx="105" cy="165" r="3" fill="#ff7b00" opacity="0.8" />
  <path d="M 285,15 L 245,15 L 225,35 L 195,35" stroke="#ff007b" stroke-width="1.5" fill="none" opacity="0.5" />
  <circle cx="195" cy="35" r="3" fill="#ff007b" opacity="0.8" />
  <g filter="url(#glow)" transform="translate(150, 100)">
    <polygon points="0,-45 40,25 -40,25" fill="none" stroke="url(#neonGrad)" stroke-width="4" />
    <circle cx="0" cy="-5" r="20" fill="none" stroke="#ff007b" stroke-width="2" />
    <text x="0" y="8" font-family="'Courier New', monospace" font-weight="900" font-size="28" fill="#ffffff" text-anchor="middle">OCAML</text>
  </g>
</svg>
